<svg width="32" height="32" viewBox="0 0 32 32" fill="none" xmlns="http://www.w3.org/2000/svg">
<circle cx="16" cy="16" r="16" fill="#11CC83"/>
<path d="M16 24.9615C13.991 24.3654 12.3221 23.1484 10.9933 21.3106C9.66442 19.4728 9 17.4026 9 15.1V9.69229L16 7.07692L23 9.69229V15.1C23 17.4026 22.3356 19.4728 21.0067 21.3106C19.6779 23.1484 18.009 24.3654 16 24.9615ZM16 23.9C17.7333 23.35 19.1667 22.25 20.3 20.6C21.4333 18.95 22 17.1167 22 15.1V10.375L16 8.14422L10 10.375V15.1C10 17.1167 10.5667 18.95 11.7 20.6C12.8333 22.25 14.2667 23.35 16 23.9Z" fill="white"/>
<path d="M13 14.5L15.5 17L19.5 13" stroke="white"/>
</svg>
