<svg width="31" height="31" viewBox="0 0 31 31" fill="none" xmlns="http://www.w3.org/2000/svg">
<path d="M14.5138 0.558978C15.1255 0.212238 15.8744 0.212238 16.4862 0.558978L22.2425 3.82165L27.9462 7.17541C28.5524 7.53184 28.9268 8.1804 28.9324 8.88356L28.985 15.5L28.9324 22.1164C28.9268 22.8196 28.5524 23.4682 27.9462 23.8246L22.2425 27.1784L16.4862 30.441C15.8745 30.7878 15.1256 30.7878 14.5138 30.441L8.7575 27.1784L3.0538 23.8246C2.44763 23.4682 2.07318 22.8196 2.0676 22.1164L2.015 15.5L2.0676 8.88356C2.07318 8.1804 2.44763 7.53184 3.0538 7.17541L8.7575 3.82165L14.5138 0.558978Z" fill="#FFBC2A"/>
<mask id="mask0_3_100" style="mask-type:alpha" maskUnits="userSpaceOnUse" x="2" y="0" width="27" height="31">
<path d="M14.5138 0.558978C15.1255 0.212238 15.8744 0.212238 16.4862 0.558978L22.2425 3.82165L27.9462 7.17541C28.5524 7.53184 28.9268 8.1804 28.9324 8.88356L28.985 15.5L28.9324 22.1164C28.9268 22.8196 28.5524 23.4682 27.9462 23.8246L22.2425 27.1784L16.4862 30.441C15.8745 30.7878 15.1256 30.7878 14.5138 30.441L8.7575 27.1784L3.0538 23.8246C2.44763 23.4682 2.07318 22.8196 2.0676 22.1164L2.015 15.5L2.0676 8.88356C2.07318 8.1804 2.44763 7.53184 3.0538 7.17541L8.7575 3.82165L14.5138 0.558978Z" fill="#FFBC2A"/>
</mask>
<g mask="url(#mask0_3_100)">
<path d="M15.5 15.5V0L29 7.5V23.5L15.5 15.5Z" fill="#12AEFC"/>
</g>
<mask id="mask1_3_100" style="mask-type:alpha" maskUnits="userSpaceOnUse" x="2" y="0" width="27" height="31">
<path d="M14.5138 0.558978C15.1255 0.212238 15.8744 0.212238 16.4862 0.558978L22.2425 3.82165L27.9462 7.17541C28.5524 7.53184 28.9268 8.1804 28.9324 8.88356L28.985 15.5L28.9324 22.1164C28.9268 22.8196 28.5524 23.4682 27.9462 23.8246L22.2425 27.1784L16.4862 30.441C15.8745 30.7878 15.1256 30.7878 14.5138 30.441L8.7575 27.1784L3.0538 23.8246C2.44763 23.4682 2.07318 22.8196 2.0676 22.1164L2.015 15.5L2.0676 8.88356C2.07318 8.1804 2.44763 7.53184 3.0538 7.17541L8.7575 3.82165L14.5138 0.558978Z" fill="#FFBC2A"/>
</mask>
<g mask="url(#mask1_3_100)">
<path d="M13.9917 17.7039L19.5 17.7039L33.5 26L15 35L-3.5 26L13.9917 17.7039Z" fill="#6D3DFF"/>
</g>
<circle cx="15.5" cy="15.5" r="10.5" fill="#1A1D20"/>
<path d="M18.4167 12.5C18.4167 11.8333 17.8333 10.5 15.5 10.5M15.5 10.5V8M15.5 10.5C14.3333 10.5 12 11 12 13C12 15 13.75 15 15.5 15C17.8333 15 19 15.5 19 17.5C19 19.5 16.6667 20 15.5 20M15.5 20V22M15.5 20C14.5278 20 12.4667 19.5 12 17.5" stroke="white" stroke-width="2"/>
</svg>
