<svg width="62" height="62" viewBox="0 0 62 62" fill="none" xmlns="http://www.w3.org/2000/svg">
<g clip-path="url(#clip0_3_126)">
<path d="M30 16V33L49.5 45L51 37.5L48 24.5L37.5 16.5L30 16Z" fill="white" fill-opacity="0.08"/>
<path d="M30 -2V33.5M30 33.5L-2 52M30 33.5L61 52" stroke="#4E5256" stroke-dasharray="3 3"/>
<path d="M30 23V33.5L41 39.5" stroke="white" stroke-width="2"/>
<path d="M12.8536 25.6953L13.2856 25.947L12.8536 25.6953C11.9659 27.2187 11.2702 28.8229 10.7664 30.5068L10.0954 30.3792L10.0934 30.3789L8.9206 30.151C9.48399 28.1999 10.3019 26.3443 11.3746 24.5833C13.0083 21.9012 15.1313 19.6757 17.7471 17.9036C20.2759 16.1904 22.9623 15.0642 25.8088 14.5194C28.6651 13.9727 31.4754 13.9665 34.2431 14.4987C37.0108 15.0309 39.6183 16.0788 42.0682 17.6457L42.3376 17.2245L42.0682 17.6457C44.5097 19.2073 46.5869 21.2495 48.3001 23.7784C50.0133 26.3072 51.1395 28.9937 51.6843 31.8402L52.1754 31.7462L51.6843 31.8402C52.231 34.6964 52.2372 37.5067 51.705 40.2744C51.1728 43.0421 50.1249 45.6496 48.558 48.0995C46.9964 50.541 44.9542 52.6182 42.4253 54.3314C37.7961 57.4675 32.7498 58.6856 27.2645 57.9941C21.9662 57.3262 17.5336 55.0161 13.9483 51.0513L15.4823 50.0121C18.8525 53.4854 22.9409 55.531 27.7315 56.1383C32.6684 56.7641 37.2349 55.6584 41.4088 52.8308C46.0572 49.6817 48.9148 45.3769 49.9604 39.9389C51.006 34.5009 49.9487 29.4434 46.7995 24.7949C43.6504 20.1465 39.3456 17.2889 33.9076 16.2433C28.4697 15.1977 23.4121 16.255 18.7637 19.4042C16.2941 21.0772 14.3222 23.175 12.8536 25.6953ZM8.66368 31.1198L9.00763 31.1866L8.53484 31.6827C8.57553 31.4942 8.61848 31.3066 8.66368 31.1198ZM2.74545 29.9699L7.68106 30.9289C7.50544 31.6606 7.36304 32.4046 7.25387 33.1608L7.03009 34.7111L8.1107 33.5772L9.67399 31.9369L10.0305 34.0364L11.0184 34.0234C11.1333 33.2186 11.2886 32.4313 11.4844 31.6613L16.5945 32.633L8.3386 38.226L2.74545 29.9699Z" fill="#602BFF" stroke="#602BFF"/>
<mask id="mask0_3_126" style="mask-type:alpha" maskUnits="userSpaceOnUse" x="1" y="13" width="52" height="46">
<path d="M12.8536 25.6952L13.2856 25.947L12.8536 25.6952C11.9659 27.2187 11.2702 28.8228 10.7664 30.5068L10.0954 30.3792L10.0934 30.3788L8.9206 30.151C9.48399 28.1998 10.3019 26.3443 11.3746 24.5833C13.0083 21.9012 15.1313 19.6757 17.7471 17.9036C20.2759 16.1904 22.9623 15.0642 25.8088 14.5194C28.6651 13.9727 31.4754 13.9665 34.2431 14.4987C37.0108 15.0309 39.6183 16.0788 42.0682 17.6457L42.3376 17.2245L42.0682 17.6457C44.5097 19.2073 46.5869 21.2495 48.3001 23.7783C50.0133 26.3072 51.1395 28.9937 51.6843 31.8402L52.1754 31.7462L51.6843 31.8402C52.231 34.6964 52.2372 37.5066 51.705 40.2743C51.1728 43.042 50.1249 45.6496 48.558 48.0995C46.9964 50.541 44.9542 52.6182 42.4253 54.3314C37.7961 57.4675 32.7498 58.6856 27.2645 57.9941C21.9662 57.3261 17.5336 55.0161 13.9483 51.0513L15.4823 50.012C18.8525 53.4854 22.9409 55.531 27.7315 56.1382C32.6684 56.764 37.2349 55.6584 41.4088 52.8308C46.0572 49.6816 48.9148 45.3769 49.9604 39.9389C51.006 34.5009 49.9487 29.4434 46.7995 24.7949C43.6504 20.1465 39.3456 17.2889 33.9076 16.2433C28.4697 15.1977 23.4121 16.255 18.7637 19.4041C16.2941 21.0772 14.3222 23.175 12.8536 25.6952ZM8.66368 31.1198L9.00763 31.1866L8.53484 31.6827C8.57553 31.4942 8.61848 31.3065 8.66368 31.1198ZM2.74545 29.9699L7.68106 30.9289C7.50544 31.6605 7.36304 32.4046 7.25387 33.1608L7.03009 34.7111L8.1107 33.5772L9.67399 31.9369L10.0305 34.0364L11.0184 34.0234C11.1333 33.2186 11.2886 32.4313 11.4844 31.6613L16.5945 32.633L8.3386 38.226L2.74545 29.9699Z" fill="#602BFF" stroke="#602BFF"/>
</mask>
<g mask="url(#mask0_3_126)">
<path d="M30 12.5V33L0.5 51L-3 44.5V13.5L30 12.5Z" fill="#FFB828"/>
</g>
<mask id="mask1_3_126" style="mask-type:alpha" maskUnits="userSpaceOnUse" x="1" y="13" width="52" height="46">
<path d="M12.8536 25.6952L13.2856 25.947L12.8536 25.6952C11.9659 27.2187 11.2702 28.8228 10.7664 30.5068L10.0954 30.3792L10.0934 30.3788L8.9206 30.151C9.48399 28.1998 10.3019 26.3443 11.3746 24.5833C13.0083 21.9012 15.1313 19.6757 17.7471 17.9036C20.2759 16.1904 22.9623 15.0642 25.8088 14.5194C28.6651 13.9727 31.4754 13.9665 34.2431 14.4987C37.0108 15.0309 39.6183 16.0788 42.0682 17.6457L42.3376 17.2245L42.0682 17.6457C44.5097 19.2073 46.5869 21.2495 48.3001 23.7783C50.0133 26.3072 51.1395 28.9937 51.6843 31.8402L52.1754 31.7462L51.6843 31.8402C52.231 34.6964 52.2372 37.5066 51.705 40.2743C51.1728 43.042 50.1249 45.6496 48.558 48.0995C46.9964 50.541 44.9542 52.6182 42.4253 54.3314C37.7961 57.4675 32.7498 58.6856 27.2645 57.9941C21.9662 57.3261 17.5336 55.0161 13.9483 51.0513L15.4823 50.012C18.8525 53.4854 22.9409 55.531 27.7315 56.1382C32.6684 56.764 37.2349 55.6584 41.4088 52.8308C46.0572 49.6816 48.9148 45.3769 49.9604 39.9389C51.006 34.5009 49.9487 29.4434 46.7995 24.7949C43.6504 20.1465 39.3456 17.2889 33.9076 16.2433C28.4697 15.1977 23.4121 16.255 18.7637 19.4041C16.2941 21.0772 14.3222 23.175 12.8536 25.6952ZM8.66368 31.1198L9.00763 31.1866L8.53484 31.6827C8.57553 31.4942 8.61848 31.3065 8.66368 31.1198ZM2.74545 29.9699L7.68106 30.9289C7.50544 31.6605 7.36304 32.4046 7.25387 33.1608L7.03009 34.7111L8.1107 33.5772L9.67399 31.9369L10.0305 34.0364L11.0184 34.0234C11.1333 33.2186 11.2886 32.4313 11.4844 31.6613L16.5945 32.633L8.3386 38.226L2.74545 29.9699Z" fill="#602BFF" stroke="#602BFF"/>
</mask>
<g mask="url(#mask1_3_126)">
<path d="M55.5 46L51 46L30 34.5L30 13.6675L34.8547 13.6675L51 13.6676L55.5 46Z" fill="#13ACFC"/>
</g>
</g>
<defs>
<clipPath id="clip0_3_126">
<rect width="62" height="62" fill="white"/>
</clipPath>
</defs>
</svg>
