<svg width="80" height="16" viewBox="0 0 80 16" fill="none" xmlns="http://www.w3.org/2000/svg">
<path d="M10.2486 0.350006C16.4805 0.350006 20.2283 3.54282 20.2283 8.00001C20.2283 12.4572 16.4805 15.65 10.2486 15.65C4.01684 15.65 0.289795 12.4572 0.289795 8.00001C0.289795 3.54282 4.01684 0.350006 10.2486 0.350006ZM10.2486 3.21026C6.4998 3.21026 3.73749 5.13976 3.73749 8.00001C3.73749 10.8603 6.4998 12.7898 10.2486 12.7898C14.0183 12.7898 16.7806 10.8603 16.7806 8.00001C16.7806 5.13976 14.0183 3.21026 10.2486 3.21026ZM32.6503 0.350006C37.6422 0.350006 40.6496 3.18369 40.6496 7.97663C40.6496 12.8153 37.664 15.65 32.694 15.65H22.5804V0.350006H32.6503ZM37.1188 7.97663C37.1188 4.98038 35.3753 3.32288 32.2142 3.32288H26.0021V12.6771H32.2142C35.3753 12.6771 37.1188 10.9952 37.1188 7.97663ZM51.9668 15.65C46.7111 15.65 42.7245 13.2094 42.7245 8.71188V0.350006H46.1638V8.37188C46.1638 11.1524 48.9885 12.4413 51.9668 12.4413C54.9679 12.4413 57.7925 11.1748 57.7925 8.37188V0.350006H61.2091V8.71188C61.2091 13.2094 57.2453 15.65 51.9668 15.65ZM70.8346 15.65C68.011 15.65 64.9662 15.1177 62.8041 14.12L63.9298 11.281C65.8707 12.1905 68.5406 12.7674 70.9446 12.7674C73.7028 12.7674 76.2834 12.1682 76.2834 11.1046C76.2834 10.329 75.4671 9.99538 73.7682 9.72976L68.9591 9.19744C65.2528 8.68744 63.4438 7.37951 63.4438 5.07282C63.4438 2.10207 66.5104 0.350006 71.0111 0.350006C73.7246 0.350006 77.4527 0.860006 79.3718 1.74719L78.2471 4.45232C76.3498 3.65332 73.1285 3.25488 70.8564 3.25488C68.5178 3.25488 66.9736 3.80844 66.9736 4.82844C66.9736 5.53819 67.7462 5.89307 69.7317 6.18207L74.4079 6.71332C77.9823 7.22332 79.8349 8.46644 79.8349 10.8826C79.8349 13.9426 75.9085 15.65 70.8346 15.65Z" fill="white"/>
</svg>
