<svg width="36" height="36" viewBox="0 0 36 36" fill="none" xmlns="http://www.w3.org/2000/svg">
<path fill-rule="evenodd" clip-rule="evenodd" d="M6.42686 31.7774C5.22672 30.77 4.16145 29.6085 3.25949 28.3215L8.0907 25.5322C8.92905 26.6339 9.94633 27.5894 11.1017 28.3582C12.4631 29.2641 13.9897 29.893 15.5941 30.2089C17.1986 30.5249 18.8496 30.5217 20.4528 30.1996C21.8171 29.9255 23.1241 29.425 24.3201 28.7205L27.551 33.2482C26.2772 34.0456 24.9102 34.6794 23.4823 35.136C22.8478 35.3389 22.2012 35.5068 21.5455 35.6385C19.228 36.1041 16.8415 36.1087 14.5223 35.652C12.203 35.1953 9.99645 34.2862 8.02851 32.9768C7.47171 32.6063 6.9371 32.2058 6.42686 31.7774Z" fill="#824AFF"/>
<path fill-rule="evenodd" clip-rule="evenodd" d="M12.3262 0.908722C13.6901 0.455673 15.1122 0.164672 16.5637 0.0485229V5.62182C13.7782 5.94517 11.1746 7.20115 9.18378 9.19702L5.26104 5.27428C6.39895 4.13436 7.67521 3.16157 9.05136 2.37312C10.0915 1.77721 11.1886 1.2866 12.3262 0.908722Z" fill="#606264"/>
<path fill-rule="evenodd" clip-rule="evenodd" d="M1.68808 10.3806C2.28642 9.09813 3.03659 7.88495 3.92688 6.76855L7.88568 10.7274C6.58179 12.5429 5.78618 14.6826 5.5934 16.9242C5.38693 19.325 5.88179 21.7289 7.01021 23.8467L2.20393 26.6216C1.52381 25.3768 0.996327 24.0617 0.628157 22.7048C0.079011 20.6809 -0.1157 18.5641 0.0662178 16.4488C0.248135 14.3336 0.80143 12.281 1.68808 10.3806Z" fill="#FFA600"/>
<path fill-rule="evenodd" clip-rule="evenodd" d="M25.2508 7.8675C23.2894 6.46268 20.9657 5.66033 18.5637 5.55153V0C20.0667 0.0470699 21.5503 0.282022 22.9816 0.694227C24.9414 1.25868 26.803 2.15549 28.4811 3.35737C31.5428 5.55026 33.8397 8.64825 35.0482 12.2151C36.2566 15.782 36.3159 19.6381 35.2176 23.2404C34.6157 25.2148 33.6826 27.0585 32.4695 28.698C31.5335 29.9629 30.4308 31.1063 29.1847 32.0945L25.9564 27.5703C27.8243 26.0189 29.2009 23.9523 29.9112 21.6226C30.671 19.1305 30.63 16.4629 29.7939 13.9953C28.9579 11.5277 27.369 9.38454 25.2508 7.8675Z" fill="url(#paint0_linear_2_40)"/>
<defs>
<linearGradient id="paint0_linear_2_40" x1="18.5823" y1="3.0319e-05" x2="18.5823" y2="35.7658" gradientUnits="userSpaceOnUse">
<stop stop-color="#5470FF"/>
<stop offset="1" stop-color="#00C3FF"/>
</linearGradient>
</defs>
</svg>
