<svg width="29" height="30" viewBox="0 0 29 30" fill="none" xmlns="http://www.w3.org/2000/svg">
<path d="M0 6H27C28.1046 6 29 6.89543 29 8V28C29 29.1046 28.1046 30 27 30H2C0.89543 30 0 29.1046 0 28V6Z" fill="url(#paint0_linear_3_68)"/>
<path fill-rule="evenodd" clip-rule="evenodd" d="M22.5 14C20.0147 14 18 16.0147 18 18.5C18 20.9853 20.0147 23 22.5 23H29V14H22.5ZM22.5 21C23.8807 21 25 19.8807 25 18.5C25 17.1193 23.8807 16 22.5 16C21.1193 16 20 17.1193 20 18.5C20 19.8807 21.1193 21 22.5 21Z" fill="url(#paint1_linear_3_68)"/>
<path d="M0 5C0 2.23858 2.23858 0 5 0H19C20.1046 0 21 0.895431 21 2V6H0V5Z" fill="url(#paint2_linear_3_68)"/>
<defs>
<linearGradient id="paint0_linear_3_68" x1="0" y1="6" x2="28" y2="29.5" gradientUnits="userSpaceOnUse">
<stop stop-color="#8C5AFF"/>
<stop offset="1" stop-color="#6827FF"/>
</linearGradient>
<linearGradient id="paint1_linear_3_68" x1="23.5" y1="14" x2="23.5" y2="23" gradientUnits="userSpaceOnUse">
<stop stop-color="#FFC700"/>
<stop offset="1" stop-color="#FF9F00"/>
</linearGradient>
<linearGradient id="paint2_linear_3_68" x1="10.5" y1="0" x2="10.5" y2="6" gradientUnits="userSpaceOnUse">
<stop stop-color="#00ACFF"/>
<stop offset="1" stop-color="#008BFF"/>
</linearGradient>
</defs>
</svg>
